<svg xmlns="http://www.w3.org/2000/svg" width="900" height="590">
<rect width="100%" height="100%" fill="white"/>
<text x="450.0" y="28" text-anchor="middle" font-size="20" font-weight="bold">Example synthetic windows</text>
<text x="20" y="120.0" font-size="14">healthy</text>
<line x1="140" y1="120.0" x2="870" y2="120.0" stroke="#ddd"/>
<polyline points="140.0,136.8 141.4,114.7 142.8,122.5 144.2,112.6 145.6,115.9 147.0,130.4 148.5,121.2 149.9,134.5 151.3,139.0 152.7,138.4 154.1,158.1 155.5,129.9 156.9,148.3 158.3,127.5 159.7,132.4 161.1,112.9 162.5,132.0 164.0,125.3 165.4,117.1 166.8,144.8 168.2,115.2 169.6,111.5 171.0,120.3 172.4,128.5 173.8,141.2 175.2,127.6 176.6,129.4 178.0,134.3 179.5,134.7 180.9,134.0 182.3,138.7 183.7,108.9 185.1,142.9 186.5,123.5 187.9,119.5 189.3,115.5 190.7,110.2 192.1,122.8 193.5,140.2 195.0,131.7 196.4,153.4 197.8,123.4 199.2,137.1 200.6,138.3 202.0,133.3 203.4,123.0 204.8,123.5 206.2,93.9 207.6,126.6 209.0,121.3 210.5,125.2 211.9,129.7 213.3,133.6 214.7,142.4 216.1,145.0 217.5,147.4 218.9,151.7 220.3,129.8 221.7,117.0 223.1,128.7 224.5,125.3 225.9,120.7 227.4,122.1 228.8,134.2 230.2,107.9 231.6,122.0 233.0,138.6 234.4,131.7 235.8,141.8 237.2,139.8 238.6,132.2 240.0,122.7 241.4,112.4 242.9,105.8 244.3,122.4 245.7,122.2 247.1,114.8 248.5,115.4 249.9,127.2 251.3,129.9 252.7,119.2 254.1,114.6 255.5,137.4 256.9,143.3 258.4,138.8 259.8,143.9 261.2,132.4 262.6,120.4 264.0,121.3 265.4,103.8 266.8,113.3 268.2,109.8 269.6,118.3 271.0,106.2 272.4,137.5 273.9,132.2 275.3,145.1 276.7,126.1 278.1,126.2 279.5,139.1 280.9,112.8 282.3,129.2 283.7,136.0 285.1,120.3 286.5,110.7 287.9,116.0 289.4,90.5 290.8,108.2 292.2,102.9 293.6,111.1 295.0,147.8 296.4,136.9 297.8,163.1 299.2,140.4 300.6,119.2 302.0,136.0 303.4,129.2 304.9,114.6 306.3,106.2 307.7,116.5 309.1,115.5 310.5,106.1 311.9,115.5 313.3,125.6 314.7,123.7 316.1,129.8 317.5,130.1 318.9,111.8 320.4,134.6 321.8,133.8 323.2,108.7 324.6,126.5 326.0,96.8 327.4,114.4 328.8,110.7 330.2,104.8 331.6,102.5 333.0,108.9 334.4,126.1 335.9,131.9 337.3,127.3 338.7,130.7 340.1,138.2 341.5,124.5 342.9,114.3 344.3,118.5 345.7,99.3 347.1,108.1 348.5,112.3 349.9,109.8 351.4,118.8 352.8,127.4 354.2,115.8 355.6,134.3 357.0,132.6 358.4,131.8 359.8,127.0 361.2,124.4 362.6,125.4 364.0,142.0 365.4,119.1 366.8,121.2 368.3,111.6 369.7,99.1 371.1,102.2 372.5,111.4 373.9,112.4 375.3,138.1 376.7,124.3 378.1,122.6 379.5,137.9 380.9,125.2 382.3,130.9 383.8,112.2 385.2,106.5 386.6,119.6 388.0,95.0 389.4,110.9 390.8,87.3 392.2,116.5 393.6,114.2 395.0,117.1 396.4,131.7 397.8,145.6 399.3,137.7 400.7,117.9 402.1,131.0 403.5,127.6 404.9,103.6 406.3,109.9 407.7,103.7 409.1,99.7 410.5,117.6 411.9,107.9 413.3,110.7 414.8,118.1 416.2,132.5 417.6,120.1 419.0,145.4 420.4,138.8 421.8,136.5 423.2,129.5 424.6,112.2 426.0,99.0 427.4,93.9 428.8,100.4 430.3,102.7 431.7,132.5 433.1,98.0 434.5,85.8 435.9,113.3 437.3,120.0 438.7,118.5 440.1,120.2 441.5,126.5 442.9,130.0 444.3,118.7 445.8,132.7 447.2,133.5 448.6,95.3 450.0,112.1 451.4,99.1 452.8,91.6 454.2,98.2 455.6,121.2 457.0,116.4 458.4,136.2 459.8,127.7 461.3,116.5 462.7,126.2 464.1,154.0 465.5,143.6 466.9,123.6 468.3,96.7 469.7,105.5 471.1,104.7 472.5,120.6 473.9,107.4 475.3,136.8 476.8,113.6 478.2,109.0 479.6,133.7 481.0,115.3 482.4,134.4 483.8,123.2 485.2,122.7 486.6,115.8 488.0,96.1 489.4,99.2 490.8,113.4 492.3,135.0 493.7,97.7 495.1,102.2 496.5,112.8 497.9,125.0 499.3,106.1 500.7,144.7 502.1,135.0 503.5,141.1 504.9,118.8 506.3,123.5 507.7,91.6 509.2,109.6 510.6,109.2 512.0,99.2 513.4,113.6 514.8,119.8 516.2,106.4 517.6,121.8 519.0,110.6 520.4,120.8 521.8,124.9 523.2,125.2 524.7,124.8 526.1,116.0 527.5,120.1 528.9,132.2 530.3,106.8 531.7,110.3 533.1,119.6 534.5,98.3 535.9,113.9 537.3,132.6 538.7,119.5 540.2,129.8 541.6,143.3 543.0,122.7 544.4,136.0 545.8,114.3 547.2,127.4 548.6,102.9 550.0,104.6 551.4,104.9 552.8,112.8 554.2,95.8 555.7,102.6 557.1,115.7 558.5,110.2 559.9,131.6 561.3,137.6 562.7,126.7 564.1,124.8 565.5,118.8 566.9,119.1 568.3,102.1 569.7,124.5 571.2,101.1 572.6,102.6 574.0,90.4 575.4,105.1 576.8,106.4 578.2,95.4 579.6,110.1 581.0,116.0 582.4,129.2 583.8,124.3 585.2,142.1 586.7,130.5 588.1,110.6 589.5,131.7 590.9,107.7 592.3,105.6 593.7,100.5 595.1,123.4 596.5,129.5 597.9,100.1 599.3,115.3 600.7,116.4 602.2,106.9 603.6,123.8 605.0,146.2 606.4,126.5 607.8,110.9 609.2,119.6 610.6,113.8 612.0,113.4 613.4,89.4 614.8,91.6 616.2,125.8 617.7,89.8 619.1,122.5 620.5,97.4 621.9,136.7 623.3,113.6 624.7,131.9 626.1,126.2 627.5,112.2 628.9,125.2 630.3,109.5 631.7,105.5 633.2,93.2 634.6,90.3 636.0,85.7 637.4,105.1 638.8,108.0 640.2,122.9 641.6,129.3 643.0,138.5 644.4,128.4 645.8,124.0 647.2,123.2 648.6,113.6 650.1,129.6 651.5,92.4 652.9,104.0 654.3,93.7 655.7,101.6 657.1,116.4 658.5,114.0 659.9,150.0 661.3,117.2 662.7,124.1 664.1,112.9 665.6,145.0 667.0,125.8 668.4,125.1 669.8,131.1 671.2,128.7 672.6,121.6 674.0,95.9 675.4,94.9 676.8,121.6 678.2,110.9 679.6,108.1 681.1,114.3 682.5,138.1 683.9,131.6 685.3,141.9 686.7,115.4 688.1,96.4 689.5,120.7 690.9,138.4 692.3,102.6 693.7,91.3 695.1,90.3 696.6,104.3 698.0,102.4 699.4,110.5 700.8,108.3 702.2,110.5 703.6,132.3 705.0,132.9 706.4,130.8 707.8,128.1 709.2,120.5 710.6,106.4 712.1,127.6 713.5,100.1 714.9,109.2 716.3,136.6 717.7,111.5 719.1,113.1 720.5,108.5 721.9,112.6 723.3,123.2 724.7,134.9 726.1,117.6 727.6,134.3 729.0,137.4 730.4,127.8 731.8,122.2 733.2,113.4 734.6,113.5 736.0,110.9 737.4,99.3 738.8,100.7 740.2,107.1 741.6,120.6 743.1,128.9 744.5,128.0 745.9,129.4 747.3,119.3 748.7,129.7 750.1,136.3 751.5,128.2 752.9,96.1 754.3,120.7 755.7,121.7 757.1,110.6 758.6,90.0 760.0,110.6 761.4,112.6 762.8,137.1 764.2,140.5 765.6,127.7 767.0,133.8 768.4,124.2 769.8,137.6 771.2,110.9 772.6,103.2 774.1,129.7 775.5,107.4 776.9,111.3 778.3,93.3 779.7,108.3 781.1,104.3 782.5,119.7 783.9,120.1 785.3,104.5 786.7,107.3 788.1,147.7 789.5,124.0 791.0,122.3 792.4,131.9 793.8,124.2 795.2,110.2 796.6,99.5 798.0,103.5 799.4,114.7 800.8,124.6 802.2,139.7 803.6,105.8 805.0,132.2 806.5,138.5 807.9,127.0 809.3,130.8 810.7,127.6 812.1,116.5 813.5,124.2 814.9,126.0 816.3,113.0 817.7,109.2 819.1,121.8 820.5,124.3 822.0,127.4 823.4,112.1 824.8,110.6 826.2,115.5 827.6,140.8 829.0,138.7 830.4,143.2 831.8,106.9 833.2,127.2 834.6,118.0 836.0,118.9 837.5,109.6 838.9,121.9 840.3,118.8 841.7,125.0 843.1,144.6 844.5,121.5 845.9,120.5 847.3,121.0 848.7,115.9 850.1,121.6 851.5,129.9 853.0,119.4 854.4,126.3 855.8,108.1 857.2,116.4 858.6,136.5 860.0,112.6" fill="none" stroke="#1565c0" stroke-width="1.4"/>
<text x="20" y="250.0" font-size="14">inner_race</text>
<line x1="140" y1="250.0" x2="870" y2="250.0" stroke="#ddd"/>
<polyline points="140.0,261.0 141.4,243.6 142.8,238.4 144.2,237.8 145.6,243.4 147.0,242.4 148.5,249.6 149.9,254.9 151.3,255.1 152.7,265.2 154.1,278.5 155.5,280.6 156.9,268.7 158.3,262.2 159.7,261.2 161.1,254.7 162.5,250.8 164.0,232.9 165.4,232.1 166.8,234.0 168.2,238.2 169.6,250.9 171.0,256.0 172.4,267.0 173.8,272.4 175.2,283.8 176.6,271.9 178.0,264.4 179.5,255.7 180.9,256.9 182.3,234.6 183.7,229.7 185.1,237.1 186.5,236.7 187.9,232.9 189.3,244.0 190.7,254.6 192.1,263.5 193.5,268.7 195.0,265.1 196.4,274.6 197.8,269.6 199.2,257.4 200.6,246.6 202.0,246.8 203.4,240.8 204.8,230.9 206.2,227.8 207.6,238.4 209.0,226.2 210.5,251.0 211.9,252.0 213.3,268.9 214.7,266.0 216.1,262.6 217.5,273.5 218.9,275.1 220.3,254.9 221.7,248.4 223.1,248.7 224.5,224.6 225.9,232.9 227.4,237.8 228.8,226.6 230.2,242.7 231.6,250.6 233.0,259.8 234.4,258.4 235.8,272.6 237.2,279.3 238.6,283.7 240.0,265.0 241.4,244.6 242.9,247.1 244.3,239.0 245.7,223.3 247.1,227.4 248.5,236.5 249.9,238.8 251.3,249.5 252.7,256.8 254.1,267.2 255.5,271.9 256.9,281.3 258.4,268.2 259.8,263.4 261.2,254.1 262.6,244.2 264.0,238.9 265.4,234.0 266.8,246.6 268.2,230.9 269.6,253.0 271.0,243.9 272.4,251.9 273.9,261.4 275.3,273.0 276.7,270.9 278.1,267.4 279.5,270.9 280.9,262.1 282.3,245.1 283.7,241.1 285.1,222.0 286.5,231.6 287.9,228.3 289.4,238.9 290.8,240.3 292.2,253.9 293.6,269.8 295.0,279.6 296.4,272.5 297.8,279.8 299.2,272.7 300.6,265.4 302.0,258.0 303.4,236.8 304.9,238.2 306.3,234.2 307.7,234.5 309.1,227.3 310.5,240.2 311.9,240.4 313.3,254.1 314.7,268.4 316.1,270.1 317.5,272.2 318.9,277.8 320.4,266.5 321.8,257.3 323.2,248.7 324.6,236.5 326.0,233.3 327.4,220.6 328.8,216.2 330.2,236.5 331.6,252.4 333.0,250.0 334.4,259.2 335.9,268.4 337.3,280.1 338.7,271.7 340.1,265.1 341.5,266.5 342.9,242.9 344.3,247.2 345.7,230.5 347.1,230.2 348.5,236.0 349.9,231.5 351.4,238.8 352.8,233.2 354.2,251.2 355.6,255.4 357.0,263.2 358.4,272.8 359.8,273.9 361.2,255.1 362.6,261.8 364.0,246.0 365.4,240.5 366.8,227.3 368.3,217.7 369.7,230.7 371.1,240.3 372.5,237.4 373.9,260.7 375.3,259.6 376.7,271.5 378.1,269.0 379.5,268.8 380.9,272.0 382.3,249.2 383.8,242.6 385.2,245.5 386.6,239.4 388.0,231.3 389.4,235.8 390.8,238.1 392.2,233.9 393.6,248.0 395.0,253.4 396.4,253.7 397.8,270.4 399.3,273.8 400.7,268.3 402.1,256.4 403.5,252.2 404.9,254.2 406.3,240.0 407.7,238.7 409.1,234.7 410.5,239.2 411.9,233.8 413.3,240.1 414.8,254.1 416.2,266.9 417.6,266.6 419.0,269.8 420.4,273.7 421.8,268.4 423.2,257.2 424.6,249.4 426.0,242.9 427.4,233.4 428.8,229.6 430.3,227.1 431.7,228.3 433.1,242.9 434.5,247.0 435.9,253.7 437.3,273.1 438.7,267.9 440.1,270.0 441.5,263.7 442.9,248.4 444.3,252.4 445.8,238.8 447.2,230.7 448.6,228.5 450.0,227.3 451.4,238.6 452.8,238.6 454.2,245.2 455.6,254.1 457.0,264.0 458.4,261.7 459.8,267.1 461.3,272.3 462.7,263.7 464.1,261.1 465.5,253.4 466.9,234.8 468.3,230.7 469.7,222.1 471.1,238.1 472.5,232.8 473.9,239.2 475.3,246.3 476.8,252.8 478.2,259.0 479.6,264.6 481.0,268.6 482.4,255.9 483.8,268.6 485.2,253.5 486.6,240.5 488.0,240.6 489.4,230.3 490.8,236.2 492.3,226.4 493.7,241.9 495.1,249.9 496.5,254.7 497.9,256.6 499.3,266.0 500.7,270.0 502.1,263.7 503.5,263.1 504.9,252.0 506.3,245.0 507.7,241.3 509.2,230.0 510.6,226.3 512.0,242.6 513.4,227.2 514.8,242.3 516.2,247.9 517.6,262.7 519.0,271.0 520.4,252.5 521.8,260.2 523.2,251.7 524.7,249.3 526.1,252.3 527.5,240.7 528.9,234.9 530.3,232.6 531.7,233.3 533.1,231.6 534.5,244.9 535.9,251.7 537.3,255.1 538.7,256.1 540.2,264.0 541.6,262.4 543.0,254.3 544.4,251.3 545.8,251.5 547.2,257.4 548.6,244.1 550.0,234.7 551.4,230.5 552.8,239.8 554.2,236.2 555.7,246.3 557.1,247.6 558.5,262.0 559.9,260.2 561.3,261.6 562.7,257.2 564.1,260.0 565.5,250.2 566.9,251.7 568.3,242.3 569.7,248.7 571.2,237.7 572.6,240.4 574.0,234.9 575.4,245.8 576.8,245.7 578.2,251.4 579.6,259.1 581.0,258.5 582.4,248.3 583.8,259.5 585.2,259.5 586.7,251.0 588.1,240.9 589.5,235.3 590.9,235.9 592.3,235.0 593.7,237.1 595.1,253.2 596.5,242.4 597.9,249.8 599.3,252.9 600.7,253.3 602.2,255.7 603.6,252.3 605.0,254.6 606.4,252.6 607.8,241.5 609.2,247.8 610.6,229.9 612.0,236.5 613.4,233.5 614.8,242.0 616.2,242.8 617.7,243.8 619.1,258.4 620.5,263.9 621.9,259.8 623.3,263.7 624.7,248.6 626.1,253.1 627.5,247.2 628.9,241.9 630.3,242.4 631.7,240.2 633.2,223.9 634.6,227.6 636.0,243.4 637.4,246.0 638.8,247.9 640.2,257.9 641.6,263.7 643.0,258.7 644.4,254.9 645.8,247.1 647.2,241.0 648.6,242.3 650.1,235.7 651.5,235.5 652.9,227.0 654.3,241.4 655.7,233.0 657.1,250.4 658.5,247.3 659.9,249.1 661.3,257.8 662.7,260.8 664.1,254.4 665.6,256.0 667.0,256.1 668.4,251.2 669.8,245.1 671.2,235.1 672.6,241.3 674.0,232.6 675.4,242.8 676.8,241.1 678.2,251.1 679.6,256.8 681.1,257.2 682.5,263.0 683.9,258.1 685.3,261.8 686.7,264.5 688.1,259.9 689.5,251.8 690.9,235.2 692.3,236.1 693.7,241.7 695.1,239.9 696.6,236.2 698.0,253.3 699.4,249.7 700.8,253.3 702.2,268.5 703.6,263.6 705.0,269.8 706.4,253.6 707.8,255.9 709.2,254.4 710.6,241.9 712.1,239.1 713.5,234.9 714.9,244.8 716.3,230.6 717.7,243.4 719.1,255.8 720.5,249.1 721.9,260.8 723.3,268.1 724.7,265.6 726.1,258.9 727.6,254.0 729.0,248.0 730.4,243.4 731.8,236.0 733.2,237.8 734.6,238.4 736.0,239.6 737.4,237.8 738.8,248.2 740.2,264.5 741.6,267.0 743.1,269.9 744.5,265.3 745.9,255.6 747.3,268.4 748.7,263.0 750.1,256.3 751.5,242.7 752.9,241.4 754.3,232.4 755.7,247.4 757.1,239.6 758.6,250.5 760.0,248.1 761.4,259.7 762.8,268.3 764.2,273.8 765.6,260.1 767.0,265.4 768.4,263.9 769.8,255.3 771.2,243.4 772.6,237.6 774.1,239.1 775.5,236.9 776.9,240.9 778.3,238.0 779.7,254.3 781.1,262.2 782.5,269.1 783.9,268.3 785.3,263.2 786.7,264.9 788.1,260.1 789.5,247.4 791.0,241.6 792.4,238.2 793.8,224.8 795.2,241.6 796.6,228.8 798.0,236.3 799.4,253.4 800.8,247.8 802.2,254.6 803.6,266.5 805.0,271.8 806.5,269.2 807.9,254.8 809.3,252.6 810.7,253.0 812.1,232.4 813.5,229.5 814.9,237.9 816.3,230.7 817.7,235.9 819.1,241.7 820.5,246.4 822.0,255.3 823.4,258.9 824.8,268.0 826.2,268.9 827.6,264.5 829.0,272.7 830.4,251.1 831.8,235.1 833.2,238.5 834.6,237.7 836.0,227.3 837.5,219.7 838.9,240.6 840.3,243.6 841.7,256.8 843.1,268.2 844.5,268.9 845.9,270.5 847.3,268.0 848.7,266.9 850.1,260.1 851.5,252.3 853.0,237.2 854.4,231.1 855.8,223.6 857.2,225.4 858.6,239.4 860.0,245.7" fill="none" stroke="#1565c0" stroke-width="1.4"/>
<text x="20" y="380.0" font-size="14">outer_race</text>
<line x1="140" y1="380.0" x2="870" y2="380.0" stroke="#ddd"/>
<polyline points="140.0,398.0 141.4,373.2 142.8,374.8 144.2,367.7 145.6,377.5 147.0,375.0 148.5,377.1 149.9,394.4 151.3,386.3 152.7,394.4 154.1,395.4 155.5,398.8 156.9,396.8 158.3,394.7 159.7,384.1 161.1,377.2 162.5,363.5 164.0,372.8 165.4,367.5 166.8,370.8 168.2,376.1 169.6,387.4 171.0,389.0 172.4,395.4 173.8,406.8 175.2,409.7 176.6,394.9 178.0,397.0 179.5,382.5 180.9,377.5 182.3,368.6 183.7,371.0 185.1,370.0 186.5,365.2 187.9,387.1 189.3,377.9 190.7,387.6 192.1,393.2 193.5,404.4 195.0,404.3 196.4,401.5 197.8,392.1 199.2,377.4 200.6,370.5 202.0,364.5 203.4,370.3 204.8,355.4 206.2,374.1 207.6,369.9 209.0,379.4 210.5,396.0 211.9,401.4 213.3,405.2 214.7,406.2 216.1,396.1 217.5,386.1 218.9,387.5 220.3,372.8 221.7,370.1 223.1,349.7 224.5,356.4 225.9,361.8 227.4,368.6 228.8,376.7 230.2,393.7 231.6,392.4 233.0,408.8 234.4,407.0 235.8,396.3 237.2,388.9 238.6,383.4 240.0,368.7 241.4,369.2 242.9,355.6 244.3,359.7 245.7,363.3 247.1,375.3 248.5,386.4 249.9,385.1 251.3,398.4 252.7,411.4 254.1,399.1 255.5,399.8 256.9,391.2 258.4,383.1 259.8,383.5 261.2,365.9 262.6,357.0 264.0,363.6 265.4,359.3 266.8,371.1 268.2,378.6 269.6,386.9 271.0,398.5 272.4,389.7 273.9,398.9 275.3,400.6 276.7,388.1 278.1,380.9 279.5,373.0 280.9,365.5 282.3,358.0 283.7,367.0 285.1,367.6 286.5,377.1 287.9,386.1 289.4,401.1 290.8,397.8 292.2,403.5 293.6,407.4 295.0,400.4 296.4,383.9 297.8,378.7 299.2,384.7 300.6,367.2 302.0,355.3 303.4,360.1 304.9,362.5 306.3,369.5 307.7,384.5 309.1,385.8 310.5,391.8 311.9,404.1 313.3,401.3 314.7,402.0 316.1,390.1 317.5,375.8 318.9,367.8 320.4,374.1 321.8,364.6 323.2,362.6 324.6,359.5 326.0,370.6 327.4,379.2 328.8,394.4 330.2,389.8 331.6,399.6 333.0,411.5 334.4,393.0 335.9,397.6 337.3,381.6 338.7,377.2 340.1,367.5 341.5,353.0 342.9,360.5 344.3,363.7 345.7,370.1 347.1,377.6 348.5,382.9 349.9,392.0 351.4,399.7 352.8,397.1 354.2,398.9 355.6,388.3 357.0,379.2 358.4,371.8 359.8,364.2 361.2,356.6 362.6,359.8 364.0,353.6 365.4,367.6 366.8,374.4 368.3,394.9 369.7,392.7 371.1,398.7 372.5,400.0 373.9,390.0 375.3,390.5 376.7,380.4 378.1,371.6 379.5,360.8 380.9,364.7 382.3,366.2 383.8,361.3 385.2,362.9 386.6,383.8 388.0,385.8 389.4,396.2 390.8,410.2 392.2,401.3 393.6,402.8 395.0,400.1 396.4,373.9 397.8,374.8 399.3,360.0 400.7,363.1 402.1,353.1 403.5,362.1 404.9,366.6 406.3,374.1 407.7,389.0 409.1,400.4 410.5,399.1 411.9,405.6 413.3,401.3 414.8,389.4 416.2,382.5 417.6,376.2 419.0,369.0 420.4,359.8 421.8,344.1 423.2,367.4 424.6,369.0 426.0,378.8 427.4,385.7 428.8,392.8 430.3,401.3 431.7,403.2 433.1,391.9 434.5,392.9 435.9,381.2 437.3,383.4 438.7,371.7 440.1,358.4 441.5,361.9 442.9,361.8 444.3,363.2 445.8,373.1 447.2,385.8 448.6,403.5 450.0,394.5 451.4,401.0 452.8,398.3 454.2,390.1 455.6,383.7 457.0,382.0 458.4,358.9 459.8,363.8 461.3,365.3 462.7,355.0 464.1,366.9 465.5,373.5 466.9,391.4 468.3,391.4 469.7,395.6 471.1,389.8 472.5,401.4 473.9,399.9 475.3,388.5 476.8,376.2 478.2,353.1 479.6,362.6 481.0,352.0 482.4,357.9 483.8,371.7 485.2,372.9 486.6,386.4 488.0,397.7 489.4,389.8 490.8,404.7 492.3,397.3 493.7,386.3 495.1,384.7 496.5,369.4 497.9,364.6 499.3,363.9 500.7,348.6 502.1,356.0 503.5,358.6 504.9,370.5 506.3,383.6 507.7,393.4 509.2,405.3 510.6,401.4 512.0,393.8 513.4,393.8 514.8,385.0 516.2,370.7 517.6,362.7 519.0,367.6 520.4,363.3 521.8,365.8 523.2,373.0 524.7,370.9 526.1,381.2 527.5,386.1 528.9,401.5 530.3,402.6 531.7,403.8 533.1,380.0 534.5,382.9 535.9,379.9 537.3,374.1 538.7,364.4 540.2,362.5 541.6,359.5 543.0,360.4 544.4,374.6 545.8,382.3 547.2,393.2 548.6,390.4 550.0,397.3 551.4,397.6 552.8,377.5 554.2,386.7 555.7,371.0 557.1,370.4 558.5,361.2 559.9,363.8 561.3,355.9 562.7,368.3 564.1,373.8 565.5,376.9 566.9,384.2 568.3,393.9 569.7,402.8 571.2,405.1 572.6,391.6 574.0,386.6 575.4,371.5 576.8,374.3 578.2,358.4 579.6,369.9 581.0,362.2 582.4,360.7 583.8,375.0 585.2,383.2 586.7,382.7 588.1,405.3 589.5,396.6 590.9,387.1 592.3,394.5 593.7,381.3 595.1,371.9 596.5,365.4 597.9,360.3 599.3,352.7 600.7,369.9 602.2,363.0 603.6,367.5 605.0,376.1 606.4,389.9 607.8,394.3 609.2,399.4 610.6,392.0 612.0,389.5 613.4,384.2 614.8,378.6 616.2,368.6 617.7,351.5 619.1,365.2 620.5,369.4 621.9,367.6 623.3,380.2 624.7,393.5 626.1,391.6 627.5,398.5 628.9,396.2 630.3,395.0 631.7,386.2 633.2,389.7 634.6,376.9 636.0,370.7 637.4,365.5 638.8,354.3 640.2,355.3 641.6,367.1 643.0,372.4 644.4,378.5 645.8,384.6 647.2,388.8 648.6,400.5 650.1,390.7 651.5,384.3 652.9,390.0 654.3,375.6 655.7,377.7 657.1,374.0 658.5,363.9 659.9,359.2 661.3,361.8 662.7,373.3 664.1,387.1 665.6,383.3 667.0,395.4 668.4,394.3 669.8,393.4 671.2,382.3 672.6,374.9 674.0,372.5 675.4,364.2 676.8,364.5 678.2,368.0 679.6,364.4 681.1,362.3 682.5,374.9 683.9,383.3 685.3,388.7 686.7,396.4 688.1,389.1 689.5,384.4 690.9,392.1 692.3,379.3 693.7,382.6 695.1,364.4 696.6,365.6 698.0,367.4 699.4,367.2 700.8,369.9 702.2,372.5 703.6,385.8 705.0,389.1 706.4,396.8 707.8,388.5 709.2,390.1 710.6,385.0 712.1,384.4 713.5,366.9 714.9,373.4 716.3,370.2 717.7,360.4 719.1,371.1 720.5,363.3 721.9,372.5 723.3,378.7 724.7,381.1 726.1,384.5 727.6,391.2 729.0,389.7 730.4,390.8 731.8,393.4 733.2,378.3 734.6,379.0 736.0,367.5 737.4,358.1 738.8,366.6 740.2,366.6 741.6,376.0 743.1,379.4 744.5,387.1 745.9,384.9 747.3,391.6 748.7,400.6 750.1,392.4 751.5,384.1 752.9,381.8 754.3,370.5 755.7,369.5 757.1,374.8 758.6,363.0 760.0,371.2 761.4,378.3 762.8,380.5 764.2,386.9 765.6,396.0 767.0,393.3 768.4,397.3 769.8,378.0 771.2,383.4 772.6,375.8 774.1,366.6 775.5,360.9 776.9,368.2 778.3,359.8 779.7,381.5 781.1,369.6 782.5,371.5 783.9,384.0 785.3,387.5 786.7,389.3 788.1,396.0 789.5,390.8 791.0,384.1 792.4,371.7 793.8,368.5 795.2,364.9 796.6,364.3 798.0,366.7 799.4,370.5 800.8,378.5 802.2,384.2 803.6,384.1 805.0,382.5 806.5,392.1 807.9,384.6 809.3,386.4 810.7,388.9 812.1,380.2 813.5,368.7 814.9,369.8 816.3,370.3 817.7,367.6 819.1,371.9 820.5,377.4 822.0,389.2 823.4,387.6 824.8,392.4 826.2,389.5 827.6,389.4 829.0,389.1 830.4,373.5 831.8,375.8 833.2,371.6 834.6,380.3 836.0,378.4 837.5,365.1 838.9,378.3 840.3,381.0 841.7,386.1 843.1,383.1 844.5,387.4 845.9,390.3 847.3,389.2 848.7,394.4 850.1,384.8 851.5,368.2 853.0,379.0 854.4,379.7 855.8,374.8 857.2,373.7 858.6,374.4 860.0,375.4" fill="none" stroke="#1565c0" stroke-width="1.4"/>
<text x="20" y="510.0" font-size="14">rolling_element</text>
<line x1="140" y1="510.0" x2="870" y2="510.0" stroke="#ddd"/>
<polyline points="140.0,518.9 141.4,515.2 142.8,508.9 144.2,508.2 145.6,503.2 147.0,503.5 148.5,502.9 149.9,508.5 151.3,516.8 152.7,529.6 154.1,531.1 155.5,527.0 156.9,525.7 158.3,516.4 159.7,519.3 161.1,505.5 162.5,501.1 164.0,498.8 165.4,497.4 166.8,507.1 168.2,504.7 169.6,514.9 171.0,521.4 172.4,527.0 173.8,520.0 175.2,527.2 176.6,524.5 178.0,513.1 179.5,509.0 180.9,501.9 182.3,505.6 183.7,498.3 185.1,497.6 186.5,495.5 187.9,498.1 189.3,508.7 190.7,515.0 192.1,520.1 193.5,526.1 195.0,534.7 196.4,523.0 197.8,524.1 199.2,517.2 200.6,503.1 202.0,504.4 203.4,493.6 204.8,497.4 206.2,498.4 207.6,504.8 209.0,508.2 210.5,518.8 211.9,525.0 213.3,525.8 214.7,529.3 216.1,533.8 217.5,523.4 218.9,518.0 220.3,503.8 221.7,498.0 223.1,492.8 224.5,491.9 225.9,492.0 227.4,501.4 228.8,505.8 230.2,515.3 231.6,523.5 233.0,536.5 234.4,527.6 235.8,523.9 237.2,521.2 238.6,514.6 240.0,505.0 241.4,505.8 242.9,492.5 244.3,491.7 245.7,483.9 247.1,504.8 248.5,513.3 249.9,503.0 251.3,511.4 252.7,525.7 254.1,529.3 255.5,533.4 256.9,522.4 258.4,512.3 259.8,503.1 261.2,490.5 262.6,493.4 264.0,487.0 265.4,497.2 266.8,492.6 268.2,511.4 269.6,511.4 271.0,523.7 272.4,524.3 273.9,524.5 275.3,524.7 276.7,530.1 278.1,507.9 279.5,501.6 280.9,495.6 282.3,495.1 283.7,496.7 285.1,495.0 286.5,505.8 287.9,510.5 289.4,509.4 290.8,535.8 292.2,523.4 293.6,533.1 295.0,522.9 296.4,522.9 297.8,512.9 299.2,511.9 300.6,499.3 302.0,488.1 303.4,490.0 304.9,497.1 306.3,493.8 307.7,509.0 309.1,507.5 310.5,521.8 311.9,524.1 313.3,531.6 314.7,522.1 316.1,515.8 317.5,513.5 318.9,506.4 320.4,509.1 321.8,484.0 323.2,492.4 324.6,492.5 326.0,484.4 327.4,503.1 328.8,519.0 330.2,520.4 331.6,521.7 333.0,530.9 334.4,529.4 335.9,528.2 337.3,523.8 338.7,507.8 340.1,506.6 341.5,482.5 342.9,496.8 344.3,493.4 345.7,495.1 347.1,502.1 348.5,515.6 349.9,518.3 351.4,521.9 352.8,533.2 354.2,519.9 355.6,523.0 357.0,520.8 358.4,512.4 359.8,504.9 361.2,486.3 362.6,484.2 364.0,488.5 365.4,499.0 366.8,492.1 368.3,516.1 369.7,522.7 371.1,522.4 372.5,521.2 373.9,537.8 375.3,520.9 376.7,519.6 378.1,513.2 379.5,497.5 380.9,495.3 382.3,489.4 383.8,501.0 385.2,493.0 386.6,496.7 388.0,516.7 389.4,523.4 390.8,522.0 392.2,522.3 393.6,525.1 395.0,517.5 396.4,527.8 397.8,513.1 399.3,498.1 400.7,491.6 402.1,491.1 403.5,494.9 404.9,495.3 406.3,508.1 407.7,513.6 409.1,527.2 410.5,532.3 411.9,528.5 413.3,523.8 414.8,527.3 416.2,519.0 417.6,500.6 419.0,508.0 420.4,498.5 421.8,489.8 423.2,491.5 424.6,492.3 426.0,502.7 427.4,503.0 428.8,517.4 430.3,519.5 431.7,528.7 433.1,533.5 434.5,521.6 435.9,515.8 437.3,511.4 438.7,506.7 440.1,500.9 441.5,492.4 442.9,492.5 444.3,494.2 445.8,501.0 447.2,510.6 448.6,522.0 450.0,520.1 451.4,523.6 452.8,523.8 454.2,522.0 455.6,516.8 457.0,495.6 458.4,498.1 459.8,496.6 461.3,496.7 462.7,485.7 464.1,493.5 465.5,502.2 466.9,507.2 468.3,521.4 469.7,527.6 471.1,532.7 472.5,531.5 473.9,521.6 475.3,523.4 476.8,508.3 478.2,502.7 479.6,501.7 481.0,484.3 482.4,485.8 483.8,496.3 485.2,498.0 486.6,512.3 488.0,512.7 489.4,522.7 490.8,526.3 492.3,533.2 493.7,526.1 495.1,521.2 496.5,512.0 497.9,501.8 499.3,504.3 500.7,488.9 502.1,490.3 503.5,495.7 504.9,490.8 506.3,499.4 507.7,522.5 509.2,527.3 510.6,524.3 512.0,532.0 513.4,526.7 514.8,521.3 516.2,510.0 517.6,504.6 519.0,494.6 520.4,491.0 521.8,491.2 523.2,490.7 524.7,499.9 526.1,512.0 527.5,515.4 528.9,527.1 530.3,525.1 531.7,529.6 533.1,527.9 534.5,514.3 535.9,511.7 537.3,502.7 538.7,489.0 540.2,486.6 541.6,486.5 543.0,487.8 544.4,497.6 545.8,506.4 547.2,520.8 548.6,525.8 550.0,530.1 551.4,524.0 552.8,530.0 554.2,519.4 555.7,510.6 557.1,501.8 558.5,490.9 559.9,496.1 561.3,481.7 562.7,495.8 564.1,497.7 565.5,502.3 566.9,515.0 568.3,526.6 569.7,537.2 571.2,529.5 572.6,519.7 574.0,515.0 575.4,522.7 576.8,502.5 578.2,494.3 579.6,495.7 581.0,493.6 582.4,493.6 583.8,500.3 585.2,506.5 586.7,517.0 588.1,516.8 589.5,529.6 590.9,531.2 592.3,535.6 593.7,521.9 595.1,516.5 596.5,511.8 597.9,500.6 599.3,491.6 600.7,486.8 602.2,483.2 603.6,483.4 605.0,504.5 606.4,518.5 607.8,520.1 609.2,529.8 610.6,528.3 612.0,523.0 613.4,520.9 614.8,512.7 616.2,505.4 617.7,501.2 619.1,496.2 620.5,494.4 621.9,487.4 623.3,497.0 624.7,500.2 626.1,514.0 627.5,521.2 628.9,524.1 630.3,528.4 631.7,531.8 633.2,526.4 634.6,513.2 636.0,515.3 637.4,494.0 638.8,490.3 640.2,488.9 641.6,486.4 643.0,495.7 644.4,497.9 645.8,508.1 647.2,520.6 648.6,529.0 650.1,527.1 651.5,527.9 652.9,524.8 654.3,515.2 655.7,509.8 657.1,489.5 658.5,492.9 659.9,483.2 661.3,487.1 662.7,486.5 664.1,500.7 665.6,515.9 667.0,516.9 668.4,519.6 669.8,534.3 671.2,525.2 672.6,514.0 674.0,511.9 675.4,499.9 676.8,499.8 678.2,497.4 679.6,488.6 681.1,490.3 682.5,490.5 683.9,501.4 685.3,513.2 686.7,516.1 688.1,520.7 689.5,537.0 690.9,534.0 692.3,519.9 693.7,510.6 695.1,511.3 696.6,509.4 698.0,502.4 699.4,490.5 700.8,495.3 702.2,489.8 703.6,503.3 705.0,513.4 706.4,520.8 707.8,530.3 709.2,528.8 710.6,526.2 712.1,532.1 713.5,514.0 714.9,506.7 716.3,503.3 717.7,503.0 719.1,492.3 720.5,493.0 721.9,496.8 723.3,501.1 724.7,504.4 726.1,524.0 727.6,530.3 729.0,524.7 730.4,524.0 731.8,524.9 733.2,520.6 734.6,505.4 736.0,501.2 737.4,498.1 738.8,495.4 740.2,492.1 741.6,492.3 743.1,494.2 744.5,508.1 745.9,517.9 747.3,527.2 748.7,528.4 750.1,532.4 751.5,518.9 752.9,522.4 754.3,510.9 755.7,499.8 757.1,491.4 758.6,495.6 760.0,483.5 761.4,507.9 762.8,507.5 764.2,511.9 765.6,513.6 767.0,523.8 768.4,523.3 769.8,529.3 771.2,521.4 772.6,515.3 774.1,507.8 775.5,499.7 776.9,489.6 778.3,497.0 779.7,491.5 781.1,504.6 782.5,506.1 783.9,500.0 785.3,512.5 786.7,520.0 788.1,525.5 789.5,528.6 791.0,528.3 792.4,517.3 793.8,509.2 795.2,515.3 796.6,503.7 798.0,492.1 799.4,498.2 800.8,496.9 802.2,493.5 803.6,502.4 805.0,517.5 806.5,527.0 807.9,522.0 809.3,519.6 810.7,528.6 812.1,516.3 813.5,515.8 814.9,508.7 816.3,496.6 817.7,492.7 819.1,493.9 820.5,499.8 822.0,511.1 823.4,495.1 824.8,515.8 826.2,519.1 827.6,519.0 829.0,530.3 830.4,526.5 831.8,522.7 833.2,523.0 834.6,511.2 836.0,498.1 837.5,496.5 838.9,492.3 840.3,497.4 841.7,497.6 843.1,510.1 844.5,515.6 845.9,515.8 847.3,526.6 848.7,517.8 850.1,532.4 851.5,524.9 853.0,516.3 854.4,507.8 855.8,492.4 857.2,491.6 858.6,493.8 860.0,495.7" fill="none" stroke="#1565c0" stroke-width="1.4"/>
</svg>