<svg xmlns="http://www.w3.org/2000/svg" width="534" height="514">
<rect width="100%" height="100%" fill="white"/>
<text x="267.0" y="28" text-anchor="middle" font-size="20" font-weight="bold">Confusion matrix</text>
<text x="267.0" y="492" text-anchor="middle" font-size="14">Predicted class</text>
<text x="20" y="242.0" transform="rotate(-90 20 242.0)" text-anchor="middle" font-size="14">Actual class</text>
<text x="193.0" y="55" text-anchor="middle" font-size="13">healthy</text><text x="279.0" y="55" text-anchor="middle" font-size="13">inner_race</text><text x="365.0" y="55" text-anchor="middle" font-size="13">outer_race</text><text x="451.0" y="55" text-anchor="middle" font-size="13">rolling_element</text>
<text x="138" y="118" text-anchor="end" font-size="13">healthy</text><rect x="150" y="70" width="86" height="86" fill="rgb(123,123,255)" stroke="#333"/><text x="193.0" y="120" text-anchor="middle" font-size="18">339</text><rect x="236" y="70" width="86" height="86" fill="rgb(172,172,255)" stroke="#333"/><text x="279.0" y="120" text-anchor="middle" font-size="18">204</text><rect x="322" y="70" width="86" height="86" fill="rgb(235,235,255)" stroke="#333"/><text x="365.0" y="120" text-anchor="middle" font-size="18">28</text><rect x="408" y="70" width="86" height="86" fill="rgb(221,221,255)" stroke="#333"/><text x="451.0" y="120" text-anchor="middle" font-size="18">69</text><text x="138" y="204" text-anchor="end" font-size="13">inner_race</text><rect x="150" y="156" width="86" height="86" fill="rgb(209,209,255)" stroke="#333"/><text x="193.0" y="206" text-anchor="middle" font-size="18">102</text><rect x="236" y="156" width="86" height="86" fill="rgb(96,96,255)" stroke="#333"/><text x="279.0" y="206" text-anchor="middle" font-size="18">412</text><rect x="322" y="156" width="86" height="86" fill="rgb(220,220,255)" stroke="#333"/><text x="365.0" y="206" text-anchor="middle" font-size="18">70</text><rect x="408" y="156" width="86" height="86" fill="rgb(225,225,255)" stroke="#333"/><text x="451.0" y="206" text-anchor="middle" font-size="18">56</text><text x="138" y="290" text-anchor="end" font-size="13">outer_race</text><rect x="150" y="242" width="86" height="86" fill="rgb(238,238,255)" stroke="#333"/><text x="193.0" y="292" text-anchor="middle" font-size="18">21</text><rect x="236" y="242" width="86" height="86" fill="rgb(209,209,255)" stroke="#333"/><text x="279.0" y="292" text-anchor="middle" font-size="18">100</text><rect x="322" y="242" width="86" height="86" fill="rgb(75,75,255)" stroke="#333"/><text x="365.0" y="292" text-anchor="middle" font-size="18">470</text><rect x="408" y="242" width="86" height="86" fill="rgb(228,228,255)" stroke="#333"/><text x="451.0" y="292" text-anchor="middle" font-size="18">49</text><text x="138" y="376" text-anchor="end" font-size="13">rolling_element</text><rect x="150" y="328" width="86" height="86" fill="rgb(198,198,255)" stroke="#333"/><text x="193.0" y="378" text-anchor="middle" font-size="18">132</text><rect x="236" y="328" width="86" height="86" fill="rgb(182,182,255)" stroke="#333"/><text x="279.0" y="378" text-anchor="middle" font-size="18">175</text><rect x="322" y="328" width="86" height="86" fill="rgb(191,191,255)" stroke="#333"/><text x="365.0" y="378" text-anchor="middle" font-size="18">150</text><rect x="408" y="328" width="86" height="86" fill="rgb(179,179,255)" stroke="#333"/><text x="451.0" y="378" text-anchor="middle" font-size="18">183</text>
</svg>
